# xmcd
#
# Track frame offsets: 
#        150
#        21133
#        34643
#        49341
#        66788
#        85252
#        98402
#        117066
#        129459
#        155009
#        174239
#
# Disc length: 2498 seconds
#
# Revision: 0
# Processed by: cddbd v1.5.2PL0 Copyright (c) Steve Scherf et al.
# Submitted via: ExactAudioCopyFreeDBPlugin 1.0
#
DISCID=8109c00b
DTITLE=John Denver - The Box Set Series Disc 4
DYEAR=2014
DGENRE=Country
TTITLE0=The Cowboy and the Lady
TTITLE1=Perhaps Love
TTITLE2=Shanghai Brezzes
TTITLE3=Seasons of the Heart
TTITLE4=Wild Montana Skies
TTITLE5=Love Again
TTITLE6=Dreamland Express
TTITLE7=Love Is the Master
TTITLE8=Flying for Me
TTITLE9=Matthew [Live]
TTITLE10=This Old Guitar
EXTD=
EXTT0=
EXTT1=
EXTT2=
EXTT3=
EXTT4=
EXTT5=
EXTT6=
EXTT7=
EXTT8=
EXTT9=
EXTT10=
PLAYORDER=
